<?xml version="1.0" encoding="utf-8"?>
<!-- Generator: Adobe Illustrator 24.0.2, SVG Export Plug-In . SVG Version: 6.00 Build 0)  -->
<svg version="1.1" id="Layer_1" xmlns="http://www.w3.org/2000/svg" xmlns:xlink="http://www.w3.org/1999/xlink" x="0px" y="0px"
	 viewBox="0 0 1.4 1.7" style="enable-background:new 0 0 1.4 1.7;" xml:space="preserve">
<style type="text/css">
	.st0{fill:#12876F;}
</style>
<g>
	<path class="st0" d="M0.5,0.4c0,0.1,0.1,0.1,0.2,0.1s0.2,0,0.2-0.1l0-0.3L0.8,0.1c0,0-0.1,0-0.2,0L0.5,0.2L0.5,0.4z"/>
	<path class="st0" d="M0.5,1.7l0-0.8c0-0.1,0-0.2-0.1-0.2C0.4,0.6,0.3,0.5,0.3,0.4c0,0,0-0.1,0-0.1L0.1,0.5c0,0-0.1,0.1-0.1,0.2v0.5
		c0,0.1,0,0.1,0.1,0.2L0.5,1.7C0.5,1.7,0.5,1.7,0.5,1.7z"/>
	<path class="st0" d="M1.2,0.5L1,0.3c0,0,0,0.1,0,0.1c0,0.1-0.1,0.2-0.1,0.3c0,0-0.1,0.1-0.1,0.2l0,0.8c0,0,0,0,0,0c0,0,0,0,0,0
		l0.4-0.3c0,0,0.1-0.1,0.1-0.2V0.6C1.3,0.6,1.3,0.5,1.2,0.5z"/>
</g>
</svg>
