<?xml version="1.0" encoding="utf-8"?>
<!-- Generator: Adobe Illustrator 24.0.2, SVG Export Plug-In . SVG Version: 6.00 Build 0)  -->
<svg version="1.1" id="Layer_1" xmlns="http://www.w3.org/2000/svg" xmlns:xlink="http://www.w3.org/1999/xlink" x="0px" y="0px"
	 viewBox="0 0 50 50" style="enable-background:new 0 0 50 50;" xml:space="preserve">
<style type="text/css">
	.st0{fill:#12876F;}
</style>
<g>
	<path class="st0" d="M24.4,23.4c0,0.2,0.3,0.3,0.6,0.3s0.6-0.1,0.6-0.3l0-0.9l-0.3-0.3c-0.1-0.1-0.4-0.1-0.5,0l-0.3,0.3L24.4,23.4z
		"/>
	<path class="st0" d="M26.8,23.5L26.2,23c0,0.1,0,0.2,0,0.3c0,0.4-0.2,0.6-0.5,0.9c-0.2,0.2-0.3,0.3-0.3,0.7l0,2.6c0,0,0,0,0,0
		c0,0.1,0,0.1,0,0.2l1.4-1.1c0.1-0.1,0.3-0.4,0.3-0.5v-2C27,23.9,26.9,23.6,26.8,23.5z"/>
	<path class="st0" d="M24.4,27.5l0-2.6c0-0.3-0.1-0.5-0.3-0.6c-0.3-0.2-0.5-0.5-0.4-0.9c0-0.1,0-0.2,0-0.3l-0.6,0.6
		c-0.1,0.1-0.2,0.4-0.2,0.5v1.7c0,0.2,0.1,0.4,0.2,0.5L24.4,27.5C24.4,27.5,24.4,27.5,24.4,27.5z"/>
</g>
</svg>
