<?xml version="1.0" encoding="utf-8"?>
<!-- Generator: Adobe Illustrator 24.0.2, SVG Export Plug-In . SVG Version: 6.00 Build 0)  -->
<svg version="1.1" id="Layer_1" xmlns="http://www.w3.org/2000/svg" xmlns:xlink="http://www.w3.org/1999/xlink" x="0px" y="0px"
	 viewBox="0 0 100 100" style="enable-background:new 0 0 100 100;" xml:space="preserve">
<style type="text/css">
	.st0{fill:#12876F;}
	.st1{fill:#FFFFFF;}
</style>
<path class="st0" d="M15.5,64.4c0,3,2,6.9,4,8.8L45,95.8c2.4,1.9,6,1.9,8.4,0l25.2-19.9c2.4-1.9,4.4-5.8,4.4-8.8V34.8
	c0-3-2-6.9-4.4-8.8L53.4,5.7c-2.4-1.9-6-1.9-8.4,0L19.5,28.3c-2.4,1.9-4,6.1-4,8.8V64.4z"/>
<path class="st1" d="M40.3,91.2c-0.1,4.2,3.4,7.5,7.8,7.5c0,0,0,0,0.3,0c4.3,0,8-3.3,8.1-7.5c0,0,0,0,0-0.3L57,48.4
	c0.1-5.5,1.9-8.2,4.5-10.7c4.5-4.3,7.6-8,7.6-14.8c0.1-6.5-3.2-12.3-8.8-15.8c-0.9-0.6-1.8-0.1-1.8,0.9L58.4,24c0,3.4-4.7,5-9.3,5
	s-9.2-1.5-9.2-4.8l0.2-15.9c0-1-0.8-1.6-1.8-0.9c-5.6,3.6-9.2,9.6-9.1,16C29.1,30.1,32.1,34,36.5,38c2.4,2.3,4.3,5.2,4.2,10.6
	L40.3,91.2z"/>
</svg>
