<?xml version="1.0" encoding="utf-8"?>
<!-- Generator: Adobe Illustrator 24.0.2, SVG Export Plug-In . SVG Version: 6.00 Build 0)  -->
<svg version="1.1" id="Layer_1" xmlns="http://www.w3.org/2000/svg" xmlns:xlink="http://www.w3.org/1999/xlink" x="0px" y="0px"
	 viewBox="0 0 33.8 46.5" style="enable-background:new 0 0 33.8 46.5;" xml:space="preserve">
<style type="text/css">
	.st0{fill:#12876F;}
</style>
<g>
	<path class="st0" d="M12.2,10c0,1.6,2.3,2.4,4.6,2.4s4.7-0.8,4.7-2.5l0-7.1l-2.5-2c-1.2-1-3-1-4.2,0l-2.5,2.2L12.2,10z"/>
	<path class="st0" d="M12.4,43.5l0.2-21.3c0.1-2.7-0.9-4.1-2.1-5.3c-2.2-2-3.7-4-3.7-7.3c0-0.7,0.1-1.4,0.2-2.1L2,12
		c-1.2,1-2,3-2,4.4v13.7c0,1.5,1,3.5,2,4.4l10.4,9.2C12.4,43.6,12.4,43.5,12.4,43.5z"/>
	<path class="st0" d="M31.5,10.9l-5.1-4.1c0.2,0.8,0.3,1.7,0.3,2.5c0,3.4-1.5,5.3-3.8,7.4c-1.3,1.3-2.2,2.6-2.3,5.3l-0.3,21.3
		c0,0.2,0,0.2,0,0.2c0,0.5-0.1,0.9-0.3,1.3l11.3-9c1.2-1,2.2-2.9,2.2-4.4V15.3C33.8,13.8,32.8,11.8,31.5,10.9z"/>
</g>
</svg>
