<svg height='100px' width='100px' xmlns:dc="http://purl.org/dc/elements/1.1/" xmlns:cc="http://creativecommons.org/ns#" xmlns:rdf="http://www.w3.org/1999/02/22-rdf-syntax-ns#" xmlns:svg="http://www.w3.org/2000/svg" xmlns="http://www.w3.org/2000/svg" xmlns:sodipodi="http://sodipodi.sourceforge.net/DTD/sodipodi-0.dtd" xmlns:inkscape="http://www.inkscape.org/namespaces/inkscape" version="1.1" x="0px" y="0px" viewBox="0 0 100 100"><g transform="translate(0,-952.36218)"><g transform="translate(-1080,1617.9999)"><path style="text-indent:0;text-transform:none;direction:ltr;block-progression:tb;baseline-shift:baseline;color:#000000;enable-background:accumulate;" d="m 1095,-606.63793 0,22.00004 c 0,0.52358 0.4764,0.99995 1,1 l 68,0 c 0.5236,-5e-5 0.9999,-0.47642 1,-1 l 0,-22.00004 c -10e-5,-0.52358 -0.4764,-0.99995 -1,-1 l -11.9573,0 c -0.5283,-0.007 -1.0142,0.47163 -1.0142,1 0,0.52837 0.4859,1.00747 1.0142,1 l 10.9573,0 0,20.00004 -66,0 0,-20.00004 10.9573,0 c 0.5283,0.007 1.0142,-0.47163 1.0142,-1 0,-0.52837 -0.4859,-1.00747 -1.0142,-1 l -11.9573,0 c -0.6623,0.0214 -0.9925,0.5332 -1,1 z" fill="#616161" fill-opacity="1" fill-rule="nonzero" stroke="none" marker="none" visibility="visible" display="inline" overflow="visible"></path><path d="m 1129.3103,-647.38852 -17,16.00015 c -0.4042,0.3873 -0.4071,1.04921 -0.047,1.42211 0.3659,0.379 1.0376,0.4068 1.4221,0.047 l 15.3125,-14.40636 0,45.68766 c 0,0.55231 0.4477,1.00001 1,1.00001 0.5523,0 1,-0.4477 1,-1.00001 l 0,-45.68766 15.3125,14.40636 c 0.3844,0.3601 1.0621,0.3379 1.4221,-0.047 0.3599,-0.3846 0.3689,-1.00351 -0.047,-1.42211 l -17,-16.00015 c -0.4681,-0.3803 -1.0416,-0.2803 -1.3752,0 z" style="text-indent:0;text-transform:none;direction:ltr;block-progression:tb;baseline-shift:baseline;color:#000000;enable-background:accumulate;" fill="#616161" fill-opacity="1" fill-rule="nonzero" stroke="none" marker="none" visibility="visible" display="inline" overflow="visible"></path></g></g></svg>